/* XPM */
static char *asym_32_128[] = {
/* columns rows colors chars-per-pixel */
"32 128 2 1 ",
"  c #111111",
". c white",
/* pixels */
"................................",
"................................",
"................................",
"................................",
"................................",
"................................",
"................................",
"................................",
"................................",
"................................",
"................................",
"................................",
"................................",
"...  ... .... ... ..... ...  ...",
".. . .. . ... ..  .... . . . ...",
".... .... ..   .. ...... . . ...",
"... .... .... ... ..... ... ....",
".... ... ........ ..... .. . ...",
".... .. ......... .... ... . ...",
"..  ...   ......   ...   .. ....",
"................................",
"................................",
"................................",
"................................",
"................................",
"................................",
"................................",
"................................",
"................................",
"................................",
"................................",
"................................",
"................................",
"...  ... .... ... ..... ...  ...",
"...  ... .... ... ..... ...  ...",
".. . .. . ... ..  .... . . . ...",
".. . .. . ... ..  .... . . . ...",
".... .... ..   .. ...... . . ...",
".... .... ..   .. ...... . . ...",
".... .... ..   .. ...... . . ...",
"... .... .... ... ..... ... ....",
"... .... .... ... ..... ... ....",
".... ... ........ ..... .. . ...",
".... ... ........ ..... .. . ...",
".... .. ......... .... ... . ...",
".... .. ......... .... ... . ...",
"..  ...   ......   ...   .. ....",
"..  ...   ......   ...   .. ....",
"..  ...   ......   ...   .. ....",
"................................",
"................................",
"................................",
"................................",
"................................",
"................................",
"................................",
"................................",
"................................",
"................................",
"................................",
"................................",
"................................",
"...  ... .... ... ..... ...  ...",
"...  ... .... ... ..... ...  ...",
"...  ... .... ... ..... ...  ...",
"...  ... .... ... ..... ...  ...",
"...  ... .... ... ..... ...  ...",
"...  ... .... ... ..... ...  ...",
"...  ... .... ... ..... ...  ...",
"...  ... .... ... ..... ...  ...",
".. . .. . ... ..  .... . . . ...",
".. . .. . ... ..  .... . . . ...",
".. . .. . ... ..  .... . . . ...",
".. . .. . ... ..  .... . . . ...",
".. . .. . ... ..  .... . . . ...",
".. . .. . ... ..  .... . . . ...",
".. . .. . ... ..  .... . . . ...",
".. . .. . ... ..  .... . . . ...",
".. . .. . ... ..  .... . . . ...",
".... .... ..   .. ...... . . ...",
".... .... ..   .. ...... . . ...",
".... .... ..   .. ...... . . ...",
".... .... ..   .. ...... . . ...",
".... .... ..   .. ...... . . ...",
".... .... ..   .. ...... . . ...",
".... .... ..   .. ...... . . ...",
".... .... ..   .. ...... . . ...",
"... .... .... ... ..... ... ....",
"... .... .... ... ..... ... ....",
"... .... .... ... ..... ... ....",
"... .... .... ... ..... ... ....",
"... .... .... ... ..... ... ....",
"... .... .... ... ..... ... ....",
"... .... .... ... ..... ... ....",
"... .... .... ... ..... ... ....",
".... ... ........ ..... .. . ...",
".... ... ........ ..... .. . ...",
".... ... ........ ..... .. . ...",
".... ... ........ ..... .. . ...",
".... ... ........ ..... .. . ...",
".... ... ........ ..... .. . ...",
".... ... ........ ..... .. . ...",
".... ... ........ ..... .. . ...",
".... .. ......... .... ... . ...",
".... .. ......... .... ... . ...",
".... .. ......... .... ... . ...",
".... .. ......... .... ... . ...",
".... .. ......... .... ... . ...",
".... .. ......... .... ... . ...",
".... .. ......... .... ... . ...",
".... .. ......... .... ... . ...",
".... .. ......... .... ... . ...",
"..  ...   ......   ...   .. ....",
"..  ...   ......   ...   .. ....",
"..  ...   ......   ...   .. ....",
"..  ...   ......   ...   .. ....",
"..  ...   ......   ...   .. ....",
"..  ...   ......   ...   .. ....",
"..  ...   ......   ...   .. ....",
"..  ...   ......   ...   .. ....",
"................................",
"................................",
"................................",
"................................",
"................................",
"................................",
"................................",
"................................"
};
