/* XPM */
static char *d_126[] = {
/* columns rows colors chars-per-pixel */
"126 126 5 1 ",
"  c #2F2E2F",
". c #3E2F5A",
"X c #564064",
"o c #85578E",
"O c #BE9BB0",
/* pixels */
"                                                                                                                              ",
"                                                                                                                              ",
"  ooOOOOOOOOOOOOOOOOOOOOoo  ooOOOOOOOOOOOOOOOOOOOOOOOOOOOOoo  ooOOOOOOOOOOOOOOOOOOOOOOOOoo  ooOOOOOOOOOOOOOOOOOOOOOOOOOOOOoo  ",
"  ooOOOOOOOOOOOOOOOOOOOOoo  ooOOOOOOOOOOOOOOOOOOOOOOOOOOOOoo  ooOOOOOOOOOOOOOOOOOOOOOOOOoo  ooOOOOOOOOOOOOOOOOOOOOOOOOOOOOoo  ",
"  OOooooooooooooooooooooOO  OOooooooooooXXooooooXXooooooooOO  OOooooooooooooooooooooooooOO  OOooooooooooXXooooooXXooooooooOO  ",
"  OOooooooooooooooooooooOO  OOooooooooooXXooooooXXooooooooOO  OOooooooooooooooooooooooooOO  OOooooooooooXXooooooXXooooooooOO  ",
"  ooooXXXXXXXXooXXXXXXoooo  ooooXXXXooXXXXXXooXXXXXXXXXXXXoo  ooXXXXooXXXXXXXXooXXXXXXoooo  ooooXXXXooXXXXXXooXXXXXXXXXXXXoo  ",
"  ooooXXXXXXXXooXXXXXXoooo  ooooXXXXooXXXXXXooXXXXXXXXXXXXoo  ooXXXXooXXXXXXXXooXXXXXXoooo  ooooXXXXooXXXXXXooXXXXXXXXXXXXoo  ",
"  ooXXXXXXXXXXXXXXXX....oo  oo....XXXXXXXXXXXXXXXXXXXX..XXXX  XXXXXXXXXXXX..XXXXXXXX....oo  oo....XXXXXXXXXXXXXXXXXXXX..XXXX  ",
"  ooXXXXXXXXXXXXXXXX....oo  oo....XXXXXXXXXXXXXXXXXXXX..XXXX  XXXXXXXXXXXX..XXXXXXXX....oo  oo....XXXXXXXXXXXXXXXXXXXX..XXXX  ",
"  XXooXXXX................  ............XXXX................  ............................  ............XXXX................  ",
"  XXooXXXX................  ............XXXX................  ............................  ............XXXX................  ",
"  ..XXXX................      ............................      ........................      ............................    ",
"  ..XXXX................      ............................      ........................      ............................    ",
"                                                                                                                              ",
"                                                                                                                              ",
"  XXoooooooooooooooooooooooooooooooooooooo      oooooooooooooooooooooo      oooooooooooooooooooooooooooooo      oooooooooooooo",
"  XXoooooooooooooooooooooooooooooooooooooo      oooooooooooooooooooooo      oooooooooooooooooooooooooooooo      oooooooooooooo",
"  ooooooooooooooooooooooooooooXXXXoooooooooo  ooooooooooooXXXXoooooooooo  ooooooooooooooooooooXXXXoooooooooo  ooooooooooooXXXX",
"  ooooooooooooooooooooooooooooXXXXoooooooooo  ooooooooooooXXXXoooooooooo  ooooooooooooooooooooXXXXoooooooooo  ooooooooooooXXXX",
"  ooooXXXXXXooXXXXooXXXXXXooXXXXXXXXooXXoooo  ooooXXooXXXXXXXXXXooXXoooo  ooooXXXXooXXXXXXooXXXXXXXXooXXoooo  ooooXXooXXXXXXXX",
"  ooooXXXXXXooXXXXooXXXXXXooXXXXXXXXooXXoooo  ooooXXooXXXXXXXXXXooXXoooo  ooooXXXXooXXXXXXooXXXXXXXXooXXoooo  ooooXXooXXXXXXXX",
"  ooXXooXXXXXXXXXXXXXX..XXXXXX......XXXX..oo  oo..XXXXXXXX....XXXXXX..oo  oo..XXXXXXXX..XXXXXX......XXXX..oo  oo..XXXXXXXX....",
"  ooXXooXXXXXXXXXXXXXX..XXXXXX......XXXX..oo  oo..XXXXXXXX....XXXXXX..oo  oo..XXXXXXXX..XXXXXX......XXXX..oo  oo..XXXXXXXX....",
"  ooXXXXXXXXXX..XXXX......XXXXXXXXXXXX......  ......XXXX....XXXXXX......  ......XXXX......XXXXXXXXXXXX......  ......XXXX....XX",
"  ooXXXXXXXXXX..XXXX......XXXXXXXXXXXX......  ......XXXX....XXXXXX......  ......XXXX......XXXXXXXXXXXX......  ......XXXX....XX",
"  XXooXXXXXX....................XXXX........  ..........................  ......................XXXX........  ................",
"  XXooXXXXXX....................XXXX........  ..........................  ......................XXXX........  ................",
"  ..XXXX..................................      ......................      ..............................      ..............",
"  ..XXXX..................................      ......................      ..............................      ..............",
"                                                                                                                              ",
"                                                                                                                              ",
"  XXoooooooooooooooo      oooooooooooooooooooooooo      oooooooooooooooooooooooooooo      oooooooooooooooooooooooo      oooooo",
"  XXoooooooooooooooo      oooooooooooooooooooooooo      oooooooooooooooooooooooooooo      oooooooooooooooooooooooo      oooooo",
"  ooooooooooooXXoooooo  ooooooooooooXXoooooooooooooo  ooooooXXooooooooooooooooXXoooooo  ooooooooooooXXoooooooooooooo  ooooooXX",
"  ooooooooooooXXoooooo  ooooooooooooXXoooooooooooooo  ooooooXXooooooooooooooooXXoooooo  ooooooooooooXXoooooooooooooo  ooooooXX",
"  ooooooXXooXXXXXXoooo  ooooXXXXooXXXXXXXXooXXXXoooo  ooooXXXXXXXXooXXXXXXooXXXXXXoooo  ooooXXXXooXXXXXXXXooXXXXoooo  ooooXXXX",
"  ooooooXXooXXXXXXoooo  ooooXXXXooXXXXXXXXooXXXXoooo  ooooXXXXXXXXooXXXXXXooXXXXXXoooo  ooooXXXXooXXXXXXXXooXXXXoooo  ooooXXXX",
"  ooooXXXX..XXXXXXXXoo  ooXXXXXXXXXX..XXXX..XXXXXXoo  ooXXXX..XXXXXXXXXXXX..XXXXXXXXoo  ooXXXXXXXXXX..XXXX..XXXXXXoo  ooXXXX..",
"  ooooXXXX..XXXXXXXXoo  ooXXXXXXXXXX..XXXX..XXXXXXoo  ooXXXX..XXXXXXXXXXXX..XXXXXXXXoo  ooXXXXXXXXXX..XXXX..XXXXXXoo  ooXXXX..",
"  ooXXooXXXX..XXXXXX..  ..XXXXXXXX....XXXXXX..XXXX..  ..XXXXXX..XXXX....XXXX..XXXXXX..  ..XXXXXXXX....XXXXXX..XXXX..  ..XXXXXX",
"  ooXXooXXXX..XXXXXX..  ..XXXXXXXX....XXXXXX..XXXX..  ..XXXXXX..XXXX....XXXX..XXXXXX..  ..XXXXXXXX....XXXXXX..XXXX..  ..XXXXXX",
"  ooXXXXXXXX....XX....  ....XX......XXXX..XXXXXX....  ....XXXXXXXX....XXXXXX....XX....  ....XX......XXXX..XXXXXX....  ....XXXX",
"  ooXXXXXXXX....XX....  ....XX......XXXX..XXXXXX....  ....XXXXXXXX....XXXXXX....XX....  ....XX......XXXX..XXXXXX....  ....XXXX",
"  XXooXXXX............  ....................XX......  ......XX..........XX............  ....................XX......  ......XX",
"  XXooXXXX............  ....................XX......  ......XX..........XX............  ....................XX......  ......XX",
"  ..XX..............      ........................      ............................      ........................      ......",
"  ..XX..............      ........................      ............................      ........................      ......",
"                                                                                                                              ",
"                                                                                                                              ",
"  XXoooooooooooooooooooooooooooooooooooo      oooooooooooooooooooooooooooo      oooooooooooooooooooooooo      oooooooooooooooo",
"  XXoooooooooooooooooooooooooooooooooooo      oooooooooooooooooooooooooooo      oooooooooooooooooooooooo      oooooooooooooooo",
"  ooooooXXooooooooooooooooXXooooooXXoooooo  ooooooooooooooooXXoooooooooooooo  ooooooooooooXXooooooXXoooooo  ooooooooooooooooXX",
"  ooooooXXooooooooooooooooXXooooooXXoooooo  ooooooooooooooooXXoooooooooooooo  ooooooooooooXXooooooXXoooooo  ooooooooooooooooXX",
"  ooooooooXXooooooXXXXooXXXXXXooXXXXXXoooo  ooooXXXXooXXXXXXXXXXXXooXXXXoooo  ooooXXXXooXXXXXXooXXXXXXoooo  ooooXXXXooXXXXXXXX",
"  ooooooooXXooooooXXXXooXXXXXXooXXXXXXoooo  ooooXXXXooXXXXXXXXXXXXooXXXXoooo  ooooXXXXooXXXXXXooXXXXXXoooo  ooooXXXXooXXXXXXXX",
"  ooooXXXXoo..oo..XXXXXXXXXXXX..XXXXXX..oo  oo..XXXXXXXXXXXX..XX..XXXXXX..oo  oo..XXXXXXXXXXXX..XXXXXX..oo  oo..XXXXXXXXXXXX..",
"  ooooXXXXoo..oo..XXXXXXXXXXXX..XXXXXX..oo  oo..XXXXXXXXXXXX..XX..XXXXXX..oo  oo..XXXXXXXXXXXX..XXXXXX..oo  oo..XXXXXXXXXXXX..",
"  ooXXXXXXXX........XX....XXXXXXXXXX......  ......XXXXXXXX....XXXXXXXX......  ......XX....XXXXXXXXXX......  ......XXXXXXXX....",
"  ooXXXXXXXX........XX....XXXXXXXXXX......  ......XXXXXXXX....XXXXXXXX......  ......XX....XXXXXXXXXX......  ......XXXXXXXX....",
"  XXooXXXX......................XX........  ........XX............XX........  ..................XX........  ........XX........",
"  XXooXXXX......................XX........  ........XX............XX........  ..................XX........  ........XX........",
"  ..XX..................................      ............................      ........................      ................",
"  ..XX..................................      ............................      ........................      ................",
"                                                                                                                              ",
"                                                                                                                              ",
"  XXoooooooooooooooooooo      oooooooooooooooooooooooooooo      oooooooooooooooooooooooo      oooooooooooooooooooooooooooo    ",
"  XXoooooooooooooooooooo      oooooooooooooooooooooooooooo      oooooooooooooooooooooooo      oooooooooooooooooooooooooooo    ",
"  ooooooooXXoooooooooooooo  ooooooooooooXXooooooXXoooooooooo  ooooooooooooXXoooooooooooooo  ooooooooooooXXooooooXXoooooooooo  ",
"  ooooooooXXoooooooooooooo  ooooooooooooXXooooooXXoooooooooo  ooooooooooooXXoooooooooooooo  ooooooooooooXXooooooXXoooooooooo  ",
"  ooooXXXXXXXXooXXXXXXoooo  ooooXXXXooXXXXXXooXXXXXXXXXXXXoo  ooXXXXooXXXXXXXXooXXXXXXoooo  ooooXXXXooXXXXXXooXXXXXXXXXXXXoo  ",
"  ooooXXXXXXXXooXXXXXXoooo  ooooXXXXooXXXXXXooXXXXXXXXXXXXoo  ooXXXXooXXXXXXXXooXXXXXXoooo  ooooXXXXooXXXXXXooXXXXXXXXXXXXoo  ",
"  ooXXXXXXXXXXXXXXXX....oo  oo....XXXXXXXXXXXXXXXXXXXX..XXXX  XXXXXXXXXXXX..XXXXXXXX....oo  oo....XXXXXXXXXXXXXXXXXXXX..XXXX  ",
"  ooXXXXXXXXXXXXXXXX....oo  oo....XXXXXXXXXXXXXXXXXXXX..XXXX  XXXXXXXXXXXX..XXXXXXXX....oo  oo....XXXXXXXXXXXXXXXXXXXX..XXXX  ",
"  XXooXXXX................  ............XXXX................  ............................  ............XXXX................  ",
"  XXooXXXX................  ............XXXX................  ............................  ............XXXX................  ",
"  ..XXXX................      ............................      ........................      ............................    ",
"  ..XXXX................      ............................      ........................      ............................    ",
"                                                                                                                              ",
"                                                                                                                              ",
"  XXoooooooooooooooooooooooooooooooooooooo      oooooooooooooooooooooo      oooooooooooooooooooooooooooooo      oooooooooooooo",
"  XXoooooooooooooooooooooooooooooooooooooo      oooooooooooooooooooooo      oooooooooooooooooooooooooooooo      oooooooooooooo",
"  ooooooooooooooooooooooooooooXXXXoooooooooo  ooooooooooooXXXXoooooooooo  ooooooooooooooooooooXXXXoooooooooo  ooooooooooooXXXX",
"  ooooooooooooooooooooooooooooXXXXoooooooooo  ooooooooooooXXXXoooooooooo  ooooooooooooooooooooXXXXoooooooooo  ooooooooooooXXXX",
"  ooooXXXXXXooXXXXooXXXXXXooXXXXXXXXooXXoooo  ooooXXooXXXXXXXXXXooXXoooo  ooooXXXXooXXXXXXooXXXXXXXXooXXoooo  ooooXXooXXXXXXXX",
"  ooooXXXXXXooXXXXooXXXXXXooXXXXXXXXooXXoooo  ooooXXooXXXXXXXXXXooXXoooo  ooooXXXXooXXXXXXooXXXXXXXXooXXoooo  ooooXXooXXXXXXXX",
"  ooXXooXXXXXXXXXXXXXX..XXXXXX......XXXX..oo  oo..XXXXXXXX....XXXXXX..oo  oo..XXXXXXXX..XXXXXX......XXXX..oo  oo..XXXXXXXX....",
"  ooXXooXXXXXXXXXXXXXX..XXXXXX......XXXX..oo  oo..XXXXXXXX....XXXXXX..oo  oo..XXXXXXXX..XXXXXX......XXXX..oo  oo..XXXXXXXX....",
"  ooXXXXXXXXXX..XXXX......XXXXXXXXXXXX......  ......XXXX....XXXXXX......  ......XXXX......XXXXXXXXXXXX......  ......XXXX....XX",
"  ooXXXXXXXXXX..XXXX......XXXXXXXXXXXX......  ......XXXX....XXXXXX......  ......XXXX......XXXXXXXXXXXX......  ......XXXX....XX",
"  XXooXXXXXX....................XXXX........  ..........................  ......................XXXX........  ................",
"  XXooXXXXXX....................XXXX........  ..........................  ......................XXXX........  ................",
"  ..XXXX..................................      ......................      ..............................      ..............",
"  ..XXXX..................................      ......................      ..............................      ..............",
"                                                                                                                              ",
"                                                                                                                              ",
"  XXoooooooooooooooo      oooooooooooooooooooooooo      oooooooooooooooooooooooooooo      oooooooooooooooooooooooo      oooooo",
"  XXoooooooooooooooo      oooooooooooooooooooooooo      oooooooooooooooooooooooooooo      oooooooooooooooooooooooo      oooooo",
"  ooooooooooooXXoooooo  ooooooooooooXXoooooooooooooo  ooooooXXooooooooooooooooXXoooooo  ooooooooooooXXoooooooooooooo  ooooooXX",
"  ooooooooooooXXoooooo  ooooooooooooXXoooooooooooooo  ooooooXXooooooooooooooooXXoooooo  ooooooooooooXXoooooooooooooo  ooooooXX",
"  ooooooXXooXXXXXXoooo  ooooXXXXooXXXXXXXXooXXXXoooo  ooooXXXXXXXXooXXXXXXooXXXXXXoooo  ooooXXXXooXXXXXXXXooXXXXoooo  ooooXXXX",
"  ooooooXXooXXXXXXoooo  ooooXXXXooXXXXXXXXooXXXXoooo  ooooXXXXXXXXooXXXXXXooXXXXXXoooo  ooooXXXXooXXXXXXXXooXXXXoooo  ooooXXXX",
"  ooooXXXX..XXXXXXXXoo  ooXXXXXXXXXX..XXXX..XXXXXXoo  ooXXXX..XXXXXXXXXXXX..XXXXXXXXoo  ooXXXXXXXXXX..XXXX..XXXXXXoo  ooXXXX..",
"  ooooXXXX..XXXXXXXXoo  ooXXXXXXXXXX..XXXX..XXXXXXoo  ooXXXX..XXXXXXXXXXXX..XXXXXXXXoo  ooXXXXXXXXXX..XXXX..XXXXXXoo  ooXXXX..",
"  ooXXooXXXX..XXXXXX..  ..XXXXXXXX....XXXXXX..XXXX..  ..XXXXXX..XXXX....XXXX..XXXXXX..  ..XXXXXXXX....XXXXXX..XXXX..  ..XXXXXX",
"  ooXXooXXXX..XXXXXX..  ..XXXXXXXX....XXXXXX..XXXX..  ..XXXXXX..XXXX....XXXX..XXXXXX..  ..XXXXXXXX....XXXXXX..XXXX..  ..XXXXXX",
"  ooXXXXXXXX....XX....  ....XX......XXXX..XXXXXX....  ....XXXXXXXX....XXXXXX....XX....  ....XX......XXXX..XXXXXX....  ....XXXX",
"  ooXXXXXXXX....XX....  ....XX......XXXX..XXXXXX....  ....XXXXXXXX....XXXXXX....XX....  ....XX......XXXX..XXXXXX....  ....XXXX",
"  XXooXXXX............  ....................XX......  ......XX..........XX............  ....................XX......  ......XX",
"  XXooXXXX............  ....................XX......  ......XX..........XX............  ....................XX......  ......XX",
"  ..XX..............      ........................      ............................      ........................      ......",
"  ..XX..............      ........................      ............................      ........................      ......",
"                                                                                                                              ",
"                                                                                                                              ",
"  XXoooooooooooooooooooooooooooooooooooo      oooooooooooooooooooooooooooo      oooooooooooooooooooooooo      oooooooooooooooo",
"  XXoooooooooooooooooooooooooooooooooooo      oooooooooooooooooooooooooooo      oooooooooooooooooooooooo      oooooooooooooooo",
"  ooooooXXooooooooooooooooXXooooooXXoooooo  ooooooooooooooooXXoooooooooooooo  ooooooooooooXXooooooXXoooooo  ooooooooooooooooXX",
"  ooooooXXooooooooooooooooXXooooooXXoooooo  ooooooooooooooooXXoooooooooooooo  ooooooooooooXXooooooXXoooooo  ooooooooooooooooXX",
"  ooooooooXXooooooXXXXooXXXXXXooXXXXXXoooo  ooooXXXXooXXXXXXXXXXXXooXXXXoooo  ooooXXXXooXXXXXXooXXXXXXoooo  ooooXXXXooXXXXXXXX",
"  ooooooooXXooooooXXXXooXXXXXXooXXXXXXoooo  ooooXXXXooXXXXXXXXXXXXooXXXXoooo  ooooXXXXooXXXXXXooXXXXXXoooo  ooooXXXXooXXXXXXXX",
"  ooooXXXXoo..oo..XXXXXXXXXXXX..XXXXXX..oo  oo..XXXXXXXXXXXX..XX..XXXXXX..oo  oo..XXXXXXXXXXXX..XXXXXX..oo  oo..XXXXXXXXXXXX..",
"  ooooXXXXoo..oo..XXXXXXXXXXXX..XXXXXX..oo  oo..XXXXXXXXXXXX..XX..XXXXXX..oo  oo..XXXXXXXXXXXX..XXXXXX..oo  oo..XXXXXXXXXXXX..",
"  ooXXXXXXXX........XX....XXXXXXXXXX......  ......XXXXXXXX....XXXXXXXX......  ......XX....XXXXXXXXXX......  ......XXXXXXXX....",
"  ooXXXXXXXX........XX....XXXXXXXXXX......  ......XXXXXXXX....XXXXXXXX......  ......XX....XXXXXXXXXX......  ......XXXXXXXX....",
"  XXooXXXX......................XX........  ........XX............XX........  ..................XX........  ........XX........",
"  XXooXXXX......................XX........  ........XX............XX........  ..................XX........  ........XX........"
};
