/* XPM */
static char *d_64[] = {
/* columns rows colors chars-per-pixel */
"64 64 5 1 ",
"  c #2F2E2F",
". c #3E2F5A",
"X c #564064",
"o c #85578E",
"O c #BE9BB0",
/* pixels */
"                                                                ",
"                                                                ",
"  ooOOOOOOOOOOOOOOOOOOOOoo  ooOOOOOOOOOOOOOOOOOOOOOOOOOOOOoo  oo",
"  ooOOOOOOOOOOOOOOOOOOOOoo  ooOOOOOOOOOOOOOOOOOOOOOOOOOOOOoo  oo",
"  OOooooooooooooooooooooOO  OOooooooooooXXooooooXXooooooooOO  OO",
"  OOooooooooooooooooooooOO  OOooooooooooXXooooooXXooooooooOO  OO",
"  ooooXXXXXXXXooXXXXXXoooo  ooooXXXXooXXXXXXooXXXXXXXXXXXXoo  oo",
"  ooooXXXXXXXXooXXXXXXoooo  ooooXXXXooXXXXXXooXXXXXXXXXXXXoo  oo",
"  ooXXXXXXXXXXXXXXXX....oo  oo....XXXXXXXXXXXXXXXXXXXX..XXXX  XX",
"  ooXXXXXXXXXXXXXXXX....oo  oo....XXXXXXXXXXXXXXXXXXXX..XXXX  XX",
"  XXooXXXX................  ............XXXX................  ..",
"  XXooXXXX................  ............XXXX................  ..",
"  ..XXXX................      ............................      ",
"  ..XXXX................      ............................      ",
"                                                                ",
"                                                                ",
"  XXoooooooooooooooooooooooooooooooooooooo      oooooooooooooooo",
"  XXoooooooooooooooooooooooooooooooooooooo      oooooooooooooooo",
"  ooooooooooooooooooooooooooooXXXXoooooooooo  ooooooooooooXXXXoo",
"  ooooooooooooooooooooooooooooXXXXoooooooooo  ooooooooooooXXXXoo",
"  ooooXXXXXXooXXXXooXXXXXXooXXXXXXXXooXXoooo  ooooXXooXXXXXXXXXX",
"  ooooXXXXXXooXXXXooXXXXXXooXXXXXXXXooXXoooo  ooooXXooXXXXXXXXXX",
"  ooXXooXXXXXXXXXXXXXX..XXXXXX......XXXX..oo  oo..XXXXXXXX....XX",
"  ooXXooXXXXXXXXXXXXXX..XXXXXX......XXXX..oo  oo..XXXXXXXX....XX",
"  ooXXXXXXXXXX..XXXX......XXXXXXXXXXXX......  ......XXXX....XXXX",
"  ooXXXXXXXXXX..XXXX......XXXXXXXXXXXX......  ......XXXX....XXXX",
"  XXooXXXXXX....................XXXX........  ..................",
"  XXooXXXXXX....................XXXX........  ..................",
"  ..XXXX..................................      ................",
"  ..XXXX..................................      ................",
"                                                                ",
"                                                                ",
"  XXoooooooooooooooo      oooooooooooooooooooooooo      oooooooo",
"  XXoooooooooooooooo      oooooooooooooooooooooooo      oooooooo",
"  ooooooooooooXXoooooo  ooooooooooooXXoooooooooooooo  ooooooXXoo",
"  ooooooooooooXXoooooo  ooooooooooooXXoooooooooooooo  ooooooXXoo",
"  ooooooXXooXXXXXXoooo  ooooXXXXooXXXXXXXXooXXXXoooo  ooooXXXXXX",
"  ooooooXXooXXXXXXoooo  ooooXXXXooXXXXXXXXooXXXXoooo  ooooXXXXXX",
"  ooooXXXX..XXXXXXXXoo  ooXXXXXXXXXX..XXXX..XXXXXXoo  ooXXXX..XX",
"  ooooXXXX..XXXXXXXXoo  ooXXXXXXXXXX..XXXX..XXXXXXoo  ooXXXX..XX",
"  ooXXooXXXX..XXXXXX..  ..XXXXXXXX....XXXXXX..XXXX..  ..XXXXXX..",
"  ooXXooXXXX..XXXXXX..  ..XXXXXXXX....XXXXXX..XXXX..  ..XXXXXX..",
"  ooXXXXXXXX....XX....  ....XX......XXXX..XXXXXX....  ....XXXXXX",
"  ooXXXXXXXX....XX....  ....XX......XXXX..XXXXXX....  ....XXXXXX",
"  XXooXXXX............  ....................XX......  ......XX..",
"  XXooXXXX............  ....................XX......  ......XX..",
"  ..XX..............      ........................      ........",
"  ..XX..............      ........................      ........",
"                                                                ",
"                                                                ",
"  XXoooooooooooooooooooooooooooooooooooo      oooooooooooooooooo",
"  XXoooooooooooooooooooooooooooooooooooo      oooooooooooooooooo",
"  ooooooXXooooooooooooooooXXooooooXXoooooo  ooooooooooooooooXXoo",
"  ooooooXXooooooooooooooooXXooooooXXoooooo  ooooooooooooooooXXoo",
"  ooooooooXXooooooXXXXooXXXXXXooXXXXXXoooo  ooooXXXXooXXXXXXXXXX",
"  ooooooooXXooooooXXXXooXXXXXXooXXXXXXoooo  ooooXXXXooXXXXXXXXXX",
"  ooooXXXXoo..oo..XXXXXXXXXXXX..XXXXXX..oo  oo..XXXXXXXXXXXX..XX",
"  ooooXXXXoo..oo..XXXXXXXXXXXX..XXXXXX..oo  oo..XXXXXXXXXXXX..XX",
"  ooXXXXXXXX........XX....XXXXXXXXXX......  ......XXXXXXXX....XX",
"  ooXXXXXXXX........XX....XXXXXXXXXX......  ......XXXXXXXX....XX",
"  XXooXXXX......................XX........  ........XX..........",
"  XXooXXXX......................XX........  ........XX..........",
"  ..XX..................................      ..................",
"  ..XX..................................      .................."
};
