/* XPM */
static char *metal[] = {
/* columns rows colors chars-per-pixel */
"32 32 2 1 ",
"  c gray11",
". c #E4E4E4",
/* pixels */
"                   .            ",
" .   .      .     .       .     ",
".   ...    .     .     ..  .    ",
"     .    .     .     ....  .  .",
"       . .   ..       ....    . ",
" .      .   .  .       ..    .  ",
"...    . .  .  .     .    . .   ",
" ...  .   .  ..     .      .    ",
"  ...      .     . .      . .   ",
"   ...          ...      .   .  ",
"    ...          ...    .     . ",
"  .  .       .    .  ..         ",
" .     .    .       ....        ",
"        .  .        ....        ",
"         ..          ..      .. ",
"         ..       ..     .  ... ",
" .      .  .     ...    ... ..  ",
"  .    .    .    ..      ...    ",
"    ..        ..    .     ...   ",
"   ....      ....    .     ...  ",
"   ....      ....     ..    . . ",
"    ..        ..     .  .    ...",
".       .   .        .  .     ..",
"..     ... .     .    ..       .",
"...     ...       . .    .      ",
" .       ...       .      .     ",
"        . ...       .      .    ",
"       .   .     .   .       .. ",
"    ..        ..       ..   ....",
"   .  .      ....     ....  ....",
"   .  .      ....     ....   .. ",
"    ..        ..    .  ..       "
};
